<?xml version="1.0" standalone="no"?>
<!DOCTYPE svg PUBLIC "-//W3C//DTD SVG 20010904//EN"
 "http://www.w3.org/TR/2001/REC-SVG-20010904/DTD/svg10.dtd">
<svg version="1.0" xmlns="http://www.w3.org/2000/svg"
 width="64.000000pt" height="64.000000pt" viewBox="0 0 64.000000 64.000000"
 preserveAspectRatio="xMidYMid meet">
<metadata>
Created by potrace 1.16, written by Peter Selinger 2001-2019
</metadata>
<g transform="translate(0.000000,64.000000) scale(0.100000,-0.100000)"
fill="#1A67F1" stroke="none">
<path d="M106 388 c-22 -30 -20 -36 8 -34 13 0 24 6 23 11 -1 6 9 8 23 6 25
-3 25 -3 6 18 -24 27 -41 27 -60 -1z"/>
<path d="M158 353 c7 -3 16 -2 19 1 4 3 -2 6 -13 5 -11 0 -14 -3 -6 -6z"/>
<path d="M251 344 c0 -11 3 -14 6 -6 3 7 2 16 -1 19 -3 4 -6 -2 -5 -13z"/>
<path d="M210 340 c0 -6 4 -9 9 -6 5 4 12 1 14 -4 3 -6 4 -5 3 2 -3 15 -26 23
-26 8z"/>
<path d="M275 339 c-4 -6 -4 -13 -1 -16 3 -4 6 -1 6 6 0 7 5 9 10 6 6 -3 10
-1 10 4 0 14 -17 14 -25 0z"/>
<path d="M97 333 c-14 -4 -17 -11 -13 -26 3 -12 6 -27 6 -34 0 -7 13 -26 29
-42 l29 -29 11 24 c14 32 14 34 -4 34 -8 0 -15 5 -15 11 0 6 -7 9 -15 5 -8 -3
-15 -1 -15 4 0 5 10 12 23 14 12 3 31 7 42 9 11 3 1 5 -23 6 -24 0 -41 5 -38
9 3 5 20 7 38 6 30 -3 31 -3 8 5 -28 10 -37 11 -63 4z"/>
<path d="M324 329 c-3 -6 -2 -15 3 -20 5 -5 9 -1 9 11 0 23 -2 24 -12 9z"/>
<path d="M158 283 c7 -3 16 -2 19 1 4 3 -2 6 -13 5 -11 0 -14 -3 -6 -6z"/>
</g>
</svg>
