<?xml version="1.0" standalone="no"?>
<!DOCTYPE svg PUBLIC "-//W3C//DTD SVG 20010904//EN"
 "http://www.w3.org/TR/2001/REC-SVG-20010904/DTD/svg10.dtd">
<svg version="1.0" xmlns="http://www.w3.org/2000/svg"
 width="300.000000pt" height="120.000000pt" viewBox="0 0 300.000000 120.000000"
 preserveAspectRatio="xMidYMid meet">
<metadata>
Created by potrace 1.16, written by Peter Selinger 2001-2019
</metadata>
<g transform="translate(0.000000,120.000000) scale(0.100000,-0.100000)"
fill="#1A67F1" stroke="none">
<path d="M528 755 c-94 -30 -159 -123 -137 -197 19 -66 98 -122 191 -136 50
-7 53 -9 56 -39 l3 -32 79 56 c44 31 87 65 97 76 18 20 18 20 -79 14 -91 -5
-98 -4 -98 13 0 17 8 18 110 13 80 -4 110 -3 110 6 0 7 -34 11 -113 11 -87 0
-124 -4 -167 -20 -47 -17 -56 -18 -68 -6 -22 22 -5 36 41 36 23 1 106 3 185 6
115 4 142 8 142 20 0 11 -24 14 -138 14 -87 0 -142 -4 -149 -11 -16 -16 -55
-1 -51 19 3 15 22 16 171 13 111 -2 167 1 167 8 0 6 -50 11 -132 14 -73 2
-146 7 -161 12 -16 4 -38 3 -50 -2 -69 -32 -80 -34 -95 -19 -23 22 -5 39 35
31 21 -4 40 -2 49 5 9 8 29 10 56 5 24 -4 99 -9 166 -11 93 -4 122 -2 117 6
-5 8 -40 11 -114 9 -91 -4 -106 -2 -109 12 -4 21 24 32 48 19 10 -6 49 -10 87
-10 63 1 67 2 48 16 -75 58 -203 79 -297 49z"/>
<path d="M660 680 c0 -5 5 -10 10 -10 6 0 10 5 10 10 0 6 -4 10 -10 10 -5 0
-10 -4 -10 -10z"/>
<path d="M1480 610 c0 -64 3 -80 15 -80 8 0 15 9 15 19 0 32 19 34 55 7 18
-14 42 -26 52 -26 14 1 9 9 -19 34 -21 18 -38 36 -38 39 0 3 15 14 33 26 30
19 30 21 9 21 -13 0 -35 -9 -49 -20 -36 -28 -43 -25 -43 20 0 29 -4 40 -15 40
-12 0 -15 -16 -15 -80z"/>
<path d="M1166 657 c-13 -14 -16 -22 -8 -25 7 -2 12 -19 12 -37 0 -19 7 -41
16 -49 17 -18 44 -21 44 -6 0 6 -4 10 -10 10 -5 0 -10 18 -10 40 0 29 4 40 15
40 8 0 15 5 15 10 0 6 -7 10 -15 10 -8 0 -15 7 -15 15 0 21 -21 17 -44 -8z"/>
<path d="M450 640 c0 -5 5 -10 10 -10 6 0 10 5 10 10 0 6 -4 10 -10 10 -5 0
-10 -4 -10 -10z"/>
<path d="M972 634 c-14 -10 -22 -26 -22 -44 0 -40 40 -60 114 -58 l56 2 0 56
0 56 -63 2 c-43 1 -70 -3 -85 -14z m108 -19 c16 -19 4 -52 -21 -60 -31 -10
-67 3 -74 26 -9 28 12 49 50 49 18 0 38 -7 45 -15z"/>
<path d="M1282 630 c-29 -27 -28 -54 4 -79 21 -16 39 -20 90 -19 l64 2 0 56 0
56 -68 2 c-56 2 -72 -1 -90 -18z m108 -15 c18 -22 8 -49 -23 -59 -47 -17 -86
24 -57 59 16 19 64 19 80 0z"/>
<path d="M568 593 c7 -3 16 -2 19 1 4 3 -2 6 -13 5 -11 0 -14 -3 -6 -6z"/>
<path d="M525 530 c-3 -5 -1 -10 4 -10 6 0 11 5 11 10 0 6 -2 10 -4 10 -3 0
-8 -4 -11 -10z"/>
<path d="M660 510 c0 -5 5 -10 10 -10 6 0 10 5 10 10 0 6 -4 10 -10 10 -5 0
-10 -4 -10 -10z"/>
</g>
</svg>
