<?xml version="1.0" standalone="no"?>
<!DOCTYPE svg PUBLIC "-//W3C//DTD SVG 20010904//EN"
 "http://www.w3.org/TR/2001/REC-SVG-20010904/DTD/svg10.dtd">
<svg version="1.0" xmlns="http://www.w3.org/2000/svg"
 width="250.000000pt" height="100.000000pt" viewBox="0 0 250.000000 100.000000"
 preserveAspectRatio="xMidYMid meet">
<metadata>
Created by potrace 1.16, written by Peter Selinger 2001-2019
</metadata>
<g transform="translate(0.000000,100.000000) scale(0.100000,-0.100000)"
fill="#1A67F1" stroke="none">
<path d="M448 630 c-74 -22 -128 -82 -128 -142 0 -62 97 -138 177 -138 28 0
32 -4 35 -29 l3 -30 77 57 c43 31 78 60 78 65 0 10 -102 9 -119 -2 -8 -5 -20
-7 -28 -4 -16 6 -17 30 0 36 6 3 3 6 -8 6 -12 1 -25 -3 -31 -9 -5 -5 -25 -11
-44 -12 -26 -2 -35 1 -35 12 0 11 9 14 37 12 20 -1 39 2 43 8 4 6 51 10 116
10 73 0 109 4 109 11 0 8 -42 10 -137 8 -116 -3 -138 -2 -138 11 0 12 23 14
135 14 104 0 112 0 35 3 -55 2 -104 8 -109 13 -14 14 -48 12 -91 -6 -42 -17
-65 -13 -65 12 0 13 7 16 35 11 19 -3 37 -1 40 4 8 12 72 12 80 -1 9 -14 205
-13 205 1 0 8 -29 10 -92 8 -78 -3 -93 -2 -93 11 0 12 14 14 80 12 l80 -3 -24
20 c-48 37 -153 52 -223 31z"/>
<path d="M977 550 c-9 -11 -12 -20 -7 -20 6 0 10 -16 10 -35 0 -23 6 -37 19
-44 18 -10 19 -8 14 30 -4 29 -2 44 8 50 10 6 10 9 2 9 -7 0 -13 7 -13 15 0
21 -12 19 -33 -5z"/>
<path d="M1232 508 c2 -38 8 -63 16 -66 7 -2 12 5 12 17 0 31 15 33 40 6 13
-14 33 -25 44 -25 18 1 16 5 -14 31 l-35 30 25 19 c18 14 20 20 9 20 -8 0 -24
-7 -35 -15 -28 -21 -34 -18 -34 15 0 20 -5 30 -15 30 -13 0 -15 -11 -13 -62z"/>
<path d="M806 524 c-42 -41 -7 -78 73 -79 l56 0 3 46 3 46 -60 2 c-42 1 -64
-3 -75 -15z m89 -10 c9 -9 14 -21 12 -27 -11 -34 -87 -33 -87 1 0 40 45 55 75
26z"/>
<path d="M1066 521 c-22 -24 -13 -59 18 -71 13 -4 44 -8 69 -8 l47 1 0 47 0
47 -58 2 c-47 1 -63 -3 -76 -18z m90 -5 c26 -20 7 -51 -31 -51 -38 0 -57 31
-31 51 11 8 25 14 31 14 6 0 20 -6 31 -14z"/>
<path d="M1668 533 c7 -3 16 -2 19 1 4 3 -2 6 -13 5 -11 0 -14 -3 -6 -6z"/>
<path d="M575 440 c8 -13 133 -11 141 2 3 4 -29 8 -71 8 -51 0 -74 -4 -70 -10z"/>
</g>
</svg>
