<?xml version="1.0" standalone="no"?>
<!DOCTYPE svg PUBLIC "-//W3C//DTD SVG 20010904//EN"
 "http://www.w3.org/TR/2001/REC-SVG-20010904/DTD/svg10.dtd">
<svg version="1.0" xmlns="http://www.w3.org/2000/svg"
 width="512.000000pt" height="512.000000pt" viewBox="0 0 512.000000 512.000000"
 preserveAspectRatio="xMidYMid meet">
<metadata>
Created by potrace 1.16, written by Peter Selinger 2001-2019
</metadata>
<g transform="translate(0.000000,512.000000) scale(0.100000,-0.100000)"
fill="#1A67F1" stroke="none">
<path d="M1031 3289 c-162 -32 -302 -239 -356 -529 -21 -113 -21 -347 0 -458
49 -255 151 -433 287 -501 34 -17 74 -31 90 -31 l28 0 2 -82 c1 -46 2 -111 2
-145 0 -35 0 -63 2 -63 6 0 261 461 294 533 64 139 71 127 -69 127 -111 0
-120 -1 -126 -20 -3 -11 -16 -25 -28 -31 -51 -28 -92 100 -51 159 22 32 59 29
76 -8 l13 -30 131 0 132 0 11 44 c6 25 11 50 11 55 0 8 -68 11 -205 11 l-204
0 -17 -32 c-24 -48 -44 -68 -68 -68 -13 0 -28 -12 -38 -30 -35 -61 -90 -21
-90 65 0 86 55 126 90 65 23 -41 48 -38 71 9 38 73 29 71 265 71 l213 0 6 47
c3 27 3 51 0 55 -2 5 -110 8 -238 8 l-234 0 -16 -30 c-27 -51 -75 -31 -90 37
-7 36 8 95 30 113 20 16 50 4 63 -25 l12 -25 241 0 241 0 -6 23 c-3 12 -6 37
-6 54 l0 33 -217 2 -217 3 -26 45 c-22 39 -31 45 -63 48 -32 3 -38 0 -53 -30
-22 -44 -44 -68 -62 -68 -9 0 -27 -14 -42 -32 -33 -39 -55 -33 -76 19 -38 90
38 196 81 113 20 -39 40 -38 61 3 26 51 55 77 86 77 43 0 60 -13 88 -64 l25
-46 201 0 202 0 -12 53 -11 52 -137 3 c-130 2 -137 2 -143 -18 -18 -57 -81
-35 -92 32 -7 47 2 83 27 108 24 24 46 17 66 -21 l15 -29 119 0 c66 0 120 3
120 7 0 4 -19 45 -42 91 -90 182 -230 278 -367 251z"/>
<path d="M1125 2930 c-8 -26 3 -60 20 -60 8 0 17 9 20 20 8 26 -3 60 -20 60
-8 0 -17 -9 -20 -20z"/>
<path d="M2525 2937 c-3 -6 -4 -161 -3 -342 l3 -330 30 0 30 0 5 97 c7 129 20
142 58 57 16 -35 37 -85 48 -111 18 -45 21 -48 57 -48 20 0 37 3 37 6 0 4 -30
72 -66 152 l-66 145 56 107 c31 59 53 110 49 113 -3 4 -19 7 -34 7 -25 0 -33
-10 -83 -102 l-56 -103 0 167 c0 91 -3 173 -6 182 -7 19 -53 21 -59 3z"/>
<path d="M2022 2904 c-18 -12 -22 -25 -22 -63 0 -40 -3 -50 -20 -54 -16 -4
-20 -14 -20 -51 0 -39 3 -46 20 -46 19 0 20 -7 20 -152 0 -84 5 -171 11 -193
13 -47 45 -85 71 -85 26 0 26 87 1 106 -16 11 -18 31 -18 166 0 151 0 153 23
156 19 3 22 9 22 52 0 43 -3 49 -22 52 -21 3 -23 9 -26 66 -2 34 -6 62 -10 62
-4 0 -18 -7 -30 -16z"/>
<path d="M1720 2782 c-46 -25 -88 -106 -101 -196 -23 -166 52 -336 149 -336
13 0 37 14 54 30 36 36 38 37 38 4 0 -22 4 -25 28 -22 l27 3 0 260 0 260 -23
3 c-18 3 -23 -2 -28 -28 l-7 -31 -26 30 c-34 40 -67 46 -111 23z m87 -114 c37
-41 47 -72 47 -143 0 -115 -48 -181 -114 -160 -49 15 -79 173 -49 252 15 40
49 73 74 73 12 0 31 -10 42 -22z"/>
<path d="M2254 2781 c-41 -25 -70 -74 -90 -152 -56 -218 83 -464 198 -349 36
36 38 37 38 4 0 -22 4 -25 28 -22 l27 3 0 260 0 260 -25 0 c-20 0 -26 -6 -30
-30 l-6 -30 -17 26 c-17 25 -56 49 -80 49 -7 0 -26 -9 -43 -19z m94 -113 c31
-34 42 -72 42 -143 0 -71 -11 -109 -42 -142 -50 -54 -109 -13 -130 89 -28 138
59 271 130 196z"/>
<path d="M770 2754 c-15 -17 -3 -70 15 -68 17 2 28 31 21 57 -7 31 -18 34 -36
11z"/>
<path d="M960 2565 c-10 -27 1 -65 19 -65 23 0 28 62 6 80 -12 10 -16 8 -25
-15z"/>
<path d="M894 2287 c-10 -27 0 -72 16 -72 11 0 15 11 15 39 0 40 -20 61 -31
33z"/>
<path d="M1124 2207 c-10 -27 0 -62 19 -65 16 -3 18 2 15 34 -3 39 -24 57 -34
31z"/>
</g>
</svg>
