<?xml version="1.0" standalone="no"?>
<!DOCTYPE svg PUBLIC "-//W3C//DTD SVG 20010904//EN"
 "http://www.w3.org/TR/2001/REC-SVG-20010904/DTD/svg10.dtd">
<svg version="1.0" xmlns="http://www.w3.org/2000/svg"
 width="256.000000pt" height="256.000000pt" viewBox="0 0 256.000000 256.000000"
 preserveAspectRatio="xMidYMid meet">
<metadata>
Created by potrace 1.16, written by Peter Selinger 2001-2019
</metadata>
<g transform="translate(0.000000,256.000000) scale(0.100000,-0.100000)"
fill="#1A67F1" stroke="none">
<path d="M479 1627 c-84 -44 -138 -167 -146 -332 -10 -197 67 -376 172 -403
29 -8 30 -10 35 -78 l5 -69 56 100 c69 122 109 201 109 215 0 18 -101 12 -123
-7 -18 -17 -19 -17 -33 2 -18 24 -18 46 1 71 14 18 16 18 29 2 10 -14 28 -18
80 -18 36 0 66 4 66 9 0 5 3 16 6 25 5 14 -7 16 -98 16 -102 0 -105 -1 -116
-25 -6 -14 -17 -25 -23 -25 -7 0 -17 -7 -24 -17 -19 -26 -45 -9 -45 30 0 45
18 62 43 39 18 -16 20 -15 39 11 19 27 21 27 129 27 l109 0 0 25 0 25 -116 0
c-99 0 -119 -3 -130 -17 -13 -17 -15 -17 -29 1 -20 26 -19 60 1 77 14 11 18
11 29 -4 10 -14 30 -17 129 -17 l116 0 0 25 0 25 -102 0 -103 0 -26 32 -27 32
-47 -48 c-39 -39 -50 -45 -61 -34 -13 14 -17 30 -15 61 2 26 30 33 45 12 12
-17 14 -17 31 8 23 36 66 37 85 2 13 -24 17 -25 112 -25 97 0 99 0 96 23 -3
20 -10 22 -72 27 -49 4 -70 2 -73 -7 -8 -20 -31 -15 -44 8 -8 16 -8 28 0 45
12 27 36 32 45 9 4 -11 21 -15 65 -15 l61 0 -10 26 c-21 55 -73 116 -114 135
-53 24 -64 24 -117 -4z"/>
<path d="M560 1456 c0 -8 5 -18 10 -21 6 -3 10 3 10 14 0 12 -4 21 -10 21 -5
0 -10 -6 -10 -14z"/>
<path d="M1260 1300 c0 -144 2 -170 15 -170 11 0 15 11 15 43 0 74 16 79 44
14 15 -33 32 -57 41 -57 21 0 19 9 -16 85 l-31 66 26 48 c30 56 31 61 11 61
-8 0 -27 -21 -42 -47 l-28 -48 -3 88 c-2 68 -6 87 -17 87 -13 0 -15 -28 -15
-170z"/>
<path d="M1013 1453 c-7 -3 -13 -18 -13 -34 0 -16 -4 -29 -10 -29 -5 0 -10 -9
-10 -19 0 -11 5 -23 10 -26 6 -3 10 -41 10 -83 0 -76 13 -122 38 -130 15 -5
17 44 2 53 -5 3 -10 40 -10 81 0 43 4 74 10 74 6 0 10 11 10 25 0 14 -4 25 -9
25 -6 0 -11 15 -13 33 -2 22 -7 32 -15 30z"/>
<path d="M857 1389 c-67 -39 -58 -238 11 -256 14 -3 33 -1 44 6 11 7 18 7 18
1 0 -5 7 -10 15 -10 13 0 15 21 15 130 0 109 -2 130 -15 130 -8 0 -15 -5 -15
-11 0 -5 -10 -3 -22 5 -26 19 -27 19 -51 5z m39 -47 c19 -12 34 -49 34 -84 0
-63 -55 -104 -80 -59 -15 29 -12 104 6 129 16 24 23 26 40 14z"/>
<path d="M1127 1389 c-46 -27 -62 -153 -29 -219 19 -38 52 -50 79 -28 13 10
17 10 20 1 3 -7 11 -13 19 -13 11 0 14 25 14 130 0 109 -2 130 -15 130 -8 0
-15 -5 -15 -11 0 -5 -10 -3 -22 5 -26 19 -27 19 -51 5z m47 -58 c39 -43 25
-142 -21 -149 -42 -6 -62 92 -29 143 20 30 28 31 50 6z"/>
<path d="M380 1366 c0 -8 5 -18 10 -21 6 -3 10 3 10 14 0 12 -4 21 -10 21 -5
0 -10 -6 -10 -14z"/>
<path d="M480 1269 c0 -11 5 -17 10 -14 6 3 10 13 10 21 0 8 -4 14 -10 14 -5
0 -10 -9 -10 -21z"/>
<path d="M447 1135 c-4 -8 -2 -17 3 -20 6 -4 10 3 10 14 0 25 -6 27 -13 6z"/>
<path d="M560 1090 c0 -11 5 -20 10 -20 6 0 10 9 10 20 0 11 -4 20 -10 20 -5
0 -10 -9 -10 -20z"/>
</g>
</svg>
