<?xml version="1.0" standalone="no"?>
<!DOCTYPE svg PUBLIC "-//W3C//DTD SVG 20010904//EN"
 "http://www.w3.org/TR/2001/REC-SVG-20010904/DTD/svg10.dtd">
<svg version="1.0" xmlns="http://www.w3.org/2000/svg"
 width="128.000000pt" height="128.000000pt" viewBox="0 0 128.000000 128.000000"
 preserveAspectRatio="xMidYMid meet">
<metadata>
Created by potrace 1.16, written by Peter Selinger 2001-2019
</metadata>
<g transform="translate(0.000000,128.000000) scale(0.100000,-0.100000)"
fill="#1A67F1" stroke="none">
<path d="M222 797 c-36 -38 -52 -91 -52 -170 0 -84 28 -154 70 -174 17 -8 27
-23 30 -45 5 -33 5 -33 42 38 21 40 38 75 38 79 0 3 -16 5 -34 4 -19 -2 -38 0
-42 3 -11 12 5 40 18 32 19 -12 71 -9 76 4 7 22 -89 15 -114 -9 -23 -22 -44
-19 -44 6 0 19 21 30 30 15 5 -8 9 -7 13 4 5 12 20 16 62 16 37 0 55 4 55 13
0 12 -98 16 -118 3 -12 -7 -22 3 -22 23 0 14 11 16 70 13 47 -3 70 -1 70 7 0
7 -21 11 -54 11 -41 0 -55 4 -60 16 -6 15 -10 14 -31 -6 -19 -18 -28 -21 -36
-13 -7 7 -9 19 -5 28 5 13 9 15 20 6 10 -9 15 -8 20 4 7 19 32 19 40 0 7 -19
110 -22 104 -2 -6 16 -56 21 -73 7 -12 -10 -16 -9 -21 3 -10 27 4 35 46 30 22
-3 40 -3 40 0 0 4 -14 22 -31 42 -37 42 -75 46 -107 12z"/>
<path d="M632 653 c-1 -46 2 -83 7 -83 5 0 7 8 4 19 -8 30 13 33 26 4 6 -14
14 -23 17 -20 3 3 -2 19 -11 36 -14 28 -14 33 1 56 9 14 14 28 11 32 -4 3 -12
-6 -18 -21 -17 -37 -27 -32 -32 17 -2 23 -4 5 -5 -40z"/>
<path d="M499 704 c-2 -54 4 -120 12 -129 6 -6 7 9 3 38 -4 28 -2 52 4 59 7 9
6 19 -4 32 -14 20 -14 20 -15 0z"/>
<path d="M421 687 c-16 -16 -13 -93 4 -110 8 -9 24 -13 35 -10 17 5 20 14 20
67 0 57 -1 61 -24 62 -13 1 -29 -3 -35 -9z m44 -37 c7 -23 -12 -63 -28 -57
-14 4 -21 41 -13 63 8 21 34 17 41 -6z"/>
<path d="M554 682 c-31 -30 -1 -139 30 -113 7 6 16 8 19 4 4 -3 7 23 7 58 0
59 -2 65 -21 65 -12 0 -28 -6 -35 -14z m41 -52 c0 -24 -5 -36 -17 -38 -19 -4
-32 29 -23 59 11 34 40 19 40 -21z"/>
<path d="M713 645 c0 -27 2 -38 4 -22 2 15 2 37 0 50 -2 12 -4 0 -4 -28z"/>
<path d="M763 650 c0 -25 2 -35 4 -22 2 12 2 32 0 45 -2 12 -4 2 -4 -23z"/>
<path d="M983 630 c0 -25 2 -35 4 -22 2 12 2 32 0 45 -2 12 -4 2 -4 -23z"/>
</g>
</svg>
