<?xml version="1.0" standalone="no"?>
<!DOCTYPE svg PUBLIC "-//W3C//DTD SVG 20010904//EN"
 "http://www.w3.org/TR/2001/REC-SVG-20010904/DTD/svg10.dtd">
<svg version="1.0" xmlns="http://www.w3.org/2000/svg"
 width="1440.000000pt" height="576.000000pt" viewBox="0 0 1440.000000 576.000000"
 preserveAspectRatio="xMidYMid meet">
<metadata>
Created by potrace 1.16, written by Peter Selinger 2001-2019
</metadata>
<g transform="translate(0.000000,576.000000) scale(0.100000,-0.100000)"
fill="#1A67F1" stroke="none">
<path d="M2873 3699 c-307 -29 -596 -151 -789 -331 -316 -296 -325 -715 -21
-1019 203 -203 525 -335 871 -357 l111 -7 5 -163 5 -162 356 252 c355 252 559
412 599 468 l21 30 -336 0 -337 0 -30 -25 c-16 -13 -47 -29 -70 -35 -78 -22
-178 23 -194 85 -14 57 65 125 146 125 40 0 108 -29 129 -53 12 -15 51 -17
390 -17 l376 0 38 60 37 60 -583 0 -584 0 -74 -52 c-72 -51 -76 -53 -154 -56
-66 -4 -85 -8 -108 -28 -68 -57 -176 -57 -234 1 -37 37 -43 76 -17 113 48 69
199 73 253 8 10 -11 31 -16 73 -16 55 0 65 4 133 51 44 31 90 55 117 60 23 4
307 8 629 9 l587 0 11 44 c6 25 11 52 11 60 0 14 -71 16 -674 16 l-675 0 -26
-24 c-105 -97 -325 3 -249 113 21 30 89 61 134 61 40 0 108 -29 129 -53 12
-16 72 -17 688 -17 l675 0 -7 48 c-13 89 51 81 -625 81 -453 0 -605 3 -622 12
-13 7 -50 32 -82 56 l-60 43 -98 0 -97 0 -81 -55 c-78 -53 -83 -55 -147 -55
-58 0 -69 -3 -99 -29 -79 -70 -240 -39 -259 50 -14 62 55 119 143 119 56 0
120 -23 129 -47 3 -8 23 -13 59 -13 48 0 61 5 135 56 l82 55 141 -3 141 -3 74
-52 75 -53 568 0 c312 0 568 3 568 8 0 4 -13 30 -28 57 l-27 50 -383 3 c-377
2 -383 2 -405 -19 -31 -29 -60 -39 -119 -39 -62 0 -114 24 -133 61 -20 39 -19
62 7 94 55 70 192 74 252 6 19 -21 24 -21 365 -21 l346 1 -62 59 c-258 245
-687 371 -1120 329z"/>
<path d="M3166 3301 c-38 -42 17 -91 80 -71 67 22 47 90 -26 90 -24 0 -43 -7
-54 -19z"/>
<path d="M7097 3303 c-4 -3 -7 -171 -7 -373 0 -271 3 -369 12 -378 16 -16 150
-16 166 0 7 7 12 45 12 99 l0 87 40 32 39 31 78 -73 c43 -40 106 -99 140 -131
l62 -57 100 0 c77 0 101 3 101 13 0 8 -81 85 -180 172 -99 87 -177 162 -173
165 5 4 72 55 151 114 79 59 141 113 139 119 -2 8 -35 13 -91 15 -102 3 -84
12 -266 -129 -127 -98 -148 -111 -147 -86 0 6 -1 96 -1 200 l-2 187 -83 0
c-46 0 -87 -3 -90 -7z"/>
<path d="M5680 3266 l-45 -12 -3 -57 -3 -57 -42 0 c-23 0 -47 -4 -54 -8 -18
-11 -25 -55 -14 -85 10 -24 15 -27 61 -27 l50 0 0 -173 c0 -207 6 -226 92
-270 41 -21 70 -29 119 -30 l64 -2 3 51 3 51 -40 7 c-25 4 -44 14 -51 25 -6
11 -10 89 -10 180 l0 160 63 3 62 3 3 49 c4 59 -4 66 -75 66 l-53 0 0 70 0 70
-42 -1 c-24 -1 -63 -6 -88 -13z"/>
<path d="M4895 3144 c-54 -9 -138 -35 -187 -60 -153 -78 -213 -228 -140 -356
98 -176 391 -251 592 -151 l57 28 9 -30 c9 -28 12 -30 69 -33 32 -2 69 -1 82
3 l23 5 0 289 c0 326 7 301 -85 301 -56 0 -68 -8 -79 -53 l-7 -28 -30 21 c-64
46 -213 77 -304 64z m198 -144 c58 -28 114 -88 122 -134 27 -139 -164 -253
-338 -202 -97 28 -157 97 -157 178 0 144 212 234 373 158z"/>
<path d="M6405 3143 c-148 -20 -281 -98 -329 -195 -87 -174 38 -352 284 -404
122 -26 211 -13 356 52 7 3 16 -9 22 -25 11 -30 12 -31 76 -31 105 0 96 -28
96 300 0 325 7 300 -84 300 -56 0 -76 -12 -76 -45 0 -34 -9 -35 -58 -4 -71 44
-188 65 -287 52z m187 -137 c47 -20 104 -70 125 -109 44 -86 -27 -195 -151
-232 -164 -49 -336 41 -336 175 0 86 69 155 185 184 35 9 138 -2 177 -18z"/>
<path d="M2173 3108 c-55 -27 -26 -88 42 -88 51 0 85 51 52 79 -21 17 -69 22
-94 9z"/>
<path d="M2702 2894 c-56 -39 10 -102 78 -74 40 17 49 49 20 72 -27 22 -68 23
-98 2z"/>
<path d="M2520 2577 c-31 -16 -37 -43 -14 -68 23 -25 78 -25 104 1 29 29 24
47 -17 69 -28 14 -42 14 -73 -2z"/>
<path d="M3160 2480 c-24 -24 -24 -30 -6 -55 10 -14 26 -20 54 -20 67 0 96 47
50 79 -31 22 -74 20 -98 -4z"/>
</g>
</svg>
