<?xml version="1.0" standalone="no"?>
<!DOCTYPE svg PUBLIC "-//W3C//DTD SVG 20010904//EN"
 "http://www.w3.org/TR/2001/REC-SVG-20010904/DTD/svg10.dtd">
<svg version="1.0" xmlns="http://www.w3.org/2000/svg"
 width="1200.000000pt" height="480.000000pt" viewBox="0 0 1200.000000 480.000000"
 preserveAspectRatio="xMidYMid meet">
<metadata>
Created by potrace 1.16, written by Peter Selinger 2001-2019
</metadata>
<g transform="translate(0.000000,480.000000) scale(0.100000,-0.100000)"
fill="#1A67F1" stroke="none">
<path d="M2355 3079 c-440 -60 -771 -318 -817 -635 -57 -390 350 -745 897
-782 l100 -7 5 -136 5 -137 295 210 c314 223 396 287 475 367 l49 51 -285 0
c-273 0 -287 -1 -304 -20 -24 -26 -86 -43 -130 -34 -42 8 -95 54 -95 83 0 11
13 35 29 53 24 27 36 32 87 36 51 3 64 0 97 -22 l38 -26 312 0 312 0 28 45
c15 25 27 48 27 50 0 3 -216 5 -479 5 l-480 0 -68 -47 c-62 -43 -74 -47 -138
-51 -56 -4 -76 -9 -100 -29 -26 -22 -36 -25 -92 -21 -76 5 -113 32 -113 84 0
52 46 84 120 84 48 0 64 -5 88 -25 48 -40 109 -35 181 15 32 22 73 45 92 50
20 6 234 10 527 10 l492 0 10 26 c6 14 10 36 10 50 l0 24 -561 0 -561 0 -31
-26 c-28 -23 -38 -26 -94 -22 -75 5 -113 32 -113 83 0 82 146 120 214 56 22
-21 26 -21 584 -21 543 0 562 1 562 19 0 10 -3 32 -6 49 l-6 31 -508 3 -508 3
-69 48 c-68 46 -72 47 -144 47 -72 0 -76 -1 -142 -47 -59 -41 -76 -47 -130
-51 -46 -4 -69 -11 -90 -28 -22 -18 -41 -24 -78 -24 -107 0 -162 70 -106 135
42 49 150 52 198 4 34 -34 87 -26 165 29 l69 47 115 0 115 0 67 -47 67 -48
476 0 476 0 -27 50 -27 50 -320 0 c-315 0 -321 0 -344 -22 -31 -29 -117 -37
-161 -14 -82 42 -64 131 32 157 47 13 92 4 133 -27 32 -24 32 -24 314 -24
l283 0 -44 45 c-115 117 -304 210 -518 255 -113 24 -350 34 -457 19z"/>
<path d="M2648 2759 c-22 -13 -23 -55 -2 -63 26 -10 69 -7 82 6 20 20 14 48
-14 58 -32 12 -44 12 -66 -1z"/>
<path d="M5912 2443 l3 -318 73 -3 72 -3 0 80 c0 80 0 80 35 107 l36 27 32
-29 c17 -16 69 -64 114 -106 l83 -78 85 0 c47 0 85 4 85 9 0 6 -64 67 -142
137 -79 70 -144 131 -146 135 -2 4 51 48 117 98 66 50 122 95 126 101 4 6 -24
10 -82 10 l-88 0 -122 -95 c-67 -52 -124 -95 -128 -95 -3 0 -5 77 -5 170 l0
170 -75 0 -75 0 2 -317z"/>
<path d="M4760 2728 c-61 -14 -70 -23 -70 -74 l0 -44 -45 0 -45 0 0 -45 0 -45
45 0 45 0 0 -141 c0 -165 9 -194 72 -229 30 -17 58 -24 102 -24 l61 -1 0 40
c0 35 -3 40 -25 43 -55 8 -60 23 -60 173 l0 138 53 3 52 3 3 42 3 42 -53 3
-53 3 -5 60 c-6 67 -9 69 -80 53z"/>
<path d="M4012 2605 c-69 -19 -105 -38 -154 -83 -184 -166 -15 -412 281 -412
51 0 176 34 186 50 11 17 23 11 29 -15 6 -25 9 -26 74 -23 l67 3 3 243 2 242
-64 0 c-62 0 -65 -1 -71 -28 l-6 -28 -60 30 c-51 25 -75 30 -148 33 -54 2
-106 -3 -139 -12z m257 -118 c113 -75 105 -187 -18 -249 -86 -44 -197 -36
-261 19 -93 78 -72 189 45 245 62 29 178 22 234 -15z"/>
<path d="M5260 2602 c-75 -25 -109 -44 -149 -84 -98 -96 -93 -222 14 -316 59
-52 139 -82 235 -89 79 -6 171 13 214 43 28 19 33 18 40 -11 6 -25 9 -26 74
-23 l67 3 0 240 0 240 -62 3 c-60 3 -61 2 -67 -26 l-7 -28 -61 30 c-52 26 -74
31 -152 33 -68 2 -105 -2 -146 -15z m221 -93 c155 -52 170 -202 27 -273 -91
-45 -201 -32 -270 33 -52 48 -63 110 -29 165 44 71 176 107 272 75z"/>
<path d="M1814 2590 c-53 -21 -27 -73 34 -68 49 4 65 33 33 59 -25 21 -35 22
-67 9z"/>
<path d="M2264 2420 c-28 -11 -36 -24 -28 -45 15 -38 96 -38 111 1 11 30 -44
60 -83 44z"/>
<path d="M2110 2153 c-23 -8 -39 -33 -33 -50 14 -36 95 -35 110 3 10 27 -42
59 -77 47z"/>
<path d="M2630 2065 c-18 -22 -8 -47 23 -58 54 -18 100 26 65 61 -17 17 -73
15 -88 -3z"/>
</g>
</svg>
