<?xml version="1.0" standalone="no"?>
<!DOCTYPE svg PUBLIC "-//W3C//DTD SVG 20010904//EN"
 "http://www.w3.org/TR/2001/REC-SVG-20010904/DTD/svg10.dtd">
<svg version="1.0" xmlns="http://www.w3.org/2000/svg"
 width="512.000000pt" height="205.000000pt" viewBox="0 0 512.000000 205.000000"
 preserveAspectRatio="xMidYMid meet">
<metadata>
Created by potrace 1.16, written by Peter Selinger 2001-2019
</metadata>
<g transform="translate(0.000000,205.000000) scale(0.100000,-0.100000)"
fill="#1A67F1" stroke="none">
<path d="M962 1305 c-183 -40 -303 -154 -303 -288 0 -153 134 -270 345 -301
l79 -12 1 -52 c1 -37 4 -51 13 -48 25 10 247 171 291 212 l47 43 -117 1 c-92
0 -123 -4 -146 -17 -25 -14 -35 -15 -56 -5 -53 24 -22 80 36 67 18 -4 93 -9
166 -12 130 -4 162 2 162 28 0 5 -91 9 -202 9 -186 0 -206 -2 -233 -20 -16
-11 -39 -20 -51 -20 -11 0 -35 -7 -51 -15 -52 -26 -113 13 -77 50 17 17 70 20
79 5 10 -17 58 -11 85 10 23 18 42 20 246 20 213 0 222 1 227 20 5 20 0 20
-238 20 -152 0 -246 -4 -250 -10 -10 -16 -62 -12 -80 6 -20 21 -15 35 18 54
25 14 30 13 58 -2 27 -16 60 -18 258 -18 125 0 231 3 234 6 3 4 2 15 -4 25 -9
18 -25 19 -222 19 -195 0 -214 2 -242 20 -38 25 -83 25 -115 0 -14 -11 -36
-20 -50 -20 -14 0 -34 -7 -44 -15 -26 -20 -49 -19 -76 3 -46 37 5 73 73 51 36
-12 43 -11 78 9 48 28 115 29 149 2 23 -18 42 -20 229 -20 181 0 202 2 197 16
-3 9 -6 18 -6 20 0 2 -60 4 -134 4 -96 0 -141 -4 -161 -14 -46 -24 -105 13
-76 48 15 18 76 22 86 6 4 -6 57 -10 127 -10 l121 0 -23 25 c-55 59 -222 115
-335 114 -27 0 -78 -7 -113 -14z"/>
<path d="M1125 1170 c-8 -12 20 -24 35 -15 6 3 8 11 5 16 -8 12 -32 12 -40 -1z"/>
<path d="M2520 1046 l0 -136 35 0 c33 0 35 2 35 33 0 59 18 62 71 12 40 -37
55 -45 86 -45 l38 1 -63 58 -64 57 52 40 51 39 -35 3 c-29 3 -45 -4 -80 -32
-24 -20 -46 -36 -49 -36 -3 0 -7 30 -9 68 l-3 67 -32 3 -33 3 0 -135z"/>
<path d="M2023 1160 c-13 -6 -23 -18 -23 -30 0 -13 -7 -20 -20 -20 -11 0 -20
-7 -20 -15 0 -8 9 -15 20 -15 18 0 20 -7 20 -65 0 -75 20 -105 70 -105 35 0
40 19 10 38 -18 11 -21 21 -18 70 3 50 6 57 26 60 12 2 22 10 22 17 0 7 -10
15 -22 17 -17 2 -24 11 -26 31 -4 29 -6 30 -39 17z"/>
<path d="M1709 1110 c-75 -22 -110 -78 -84 -134 29 -61 116 -89 193 -63 23 8
42 11 42 6 0 -5 14 -9 30 -9 l31 0 -3 103 c-3 97 -4 102 -26 105 -13 2 -24 -3
-28 -11 -5 -13 -10 -14 -39 -1 -37 15 -75 17 -116 4z m120 -56 c37 -31 38 -44
7 -81 -48 -55 -156 -29 -156 38 0 64 93 91 149 43z"/>
<path d="M2223 1101 c-108 -49 -91 -159 30 -192 41 -11 103 -5 124 12 7 7 14
6 18 -1 3 -5 20 -10 36 -10 l30 0 -3 103 c-3 97 -4 102 -26 105 -13 2 -24 -3
-28 -11 -5 -13 -10 -14 -39 -1 -46 19 -92 17 -142 -5z m148 -47 c25 -23 24
-66 -2 -90 -62 -56 -195 13 -146 77 33 42 108 49 148 13z"/>
<path d="M767 1104 c-11 -11 3 -24 24 -24 12 0 19 5 17 13 -5 14 -31 21 -41
11z"/>
<path d="M956 1021 c-7 -11 22 -23 35 -15 5 3 9 9 9 15 0 12 -37 12 -44 0z"/>
<path d="M890 906 c0 -10 9 -16 21 -16 24 0 21 23 -4 28 -10 2 -17 -3 -17 -12z"/>
<path d="M1127 883 c-13 -12 -7 -23 13 -23 11 0 20 7 20 15 0 15 -21 21 -33 8z"/>
</g>
</svg>
