<?xml version="1.0" standalone="no"?>
<!DOCTYPE svg PUBLIC "-//W3C//DTD SVG 20010904//EN"
 "http://www.w3.org/TR/2001/REC-SVG-20010904/DTD/svg10.dtd">
<svg version="1.0" xmlns="http://www.w3.org/2000/svg"
 width="1200.000000pt" height="630.000000pt" viewBox="0 0 1200.000000 630.000000"
 preserveAspectRatio="xMidYMid meet">
<metadata>
Created by potrace 1.16, written by Peter Selinger 2001-2019
</metadata>
<g transform="translate(0.000000,630.000000) scale(0.100000,-0.100000)"
fill="#1A67F1" stroke="none">
<path d="M2420 4049 c-670 -67 -1078 -745 -796 -1324 155 -317 458 -514 849
-550 l67 -7 0 -180 0 -180 213 199 c318 297 472 449 543 538 35 43 64 82 64
85 0 3 -127 4 -282 2 l-283 -3 -25 -24 c-55 -52 -127 -55 -180 -5 -51 48 -52
110 -1 161 53 53 135 48 186 -12 l24 -29 310 0 310 0 30 64 c17 35 31 67 31
70 0 3 -216 6 -479 6 l-480 0 -63 -56 c-75 -66 -93 -74 -163 -74 -38 0 -54 -4
-59 -15 -9 -24 -68 -55 -104 -55 -70 0 -122 50 -122 117 0 68 52 113 131 113
34 0 47 -6 76 -35 29 -29 42 -35 79 -35 40 0 50 6 104 55 34 31 72 60 86 65
15 6 228 10 524 10 274 0 501 4 504 9 3 4 8 34 12 65 l7 56 -562 0 -563 0 -28
-29 c-103 -103 -279 36 -185 147 53 64 130 66 188 7 l34 -35 558 0 558 0 -7
61 c-3 33 -8 65 -12 70 -3 5 -213 9 -504 9 l-498 0 -34 27 c-18 15 -52 44 -75
65 -41 36 -46 38 -113 38 l-69 0 -72 -62 c-66 -57 -77 -62 -128 -66 -46 -4
-63 -11 -94 -38 -102 -92 -254 16 -192 136 35 68 139 79 199 21 52 -51 91 -44
170 28 69 62 92 71 186 71 95 0 118 -9 185 -72 l63 -58 475 2 475 3 -26 63
-26 62 -319 0 -319 0 -19 -24 c-66 -84 -219 -32 -219 74 0 71 78 131 151 115
16 -4 46 -22 64 -41 l34 -34 281 0 c154 0 280 3 280 7 0 3 -19 31 -42 61 -87
112 -259 236 -413 297 -138 54 -336 80 -495 64z"/>
<path d="M2642 3618 c-7 -7 -12 -24 -12 -38 0 -35 17 -50 57 -50 32 0 53 21
53 54 0 38 -70 62 -98 34z"/>
<path d="M5922 3622 c-10 -7 -12 -98 -10 -423 l3 -414 70 0 70 0 5 108 c5 107
5 108 39 139 29 27 35 29 45 17 6 -8 58 -72 115 -142 l104 -127 83 0 c45 0 85
4 88 9 4 5 -61 87 -144 183 -82 95 -150 178 -150 184 0 7 57 66 126 132 69 67
123 126 119 132 -3 5 -41 10 -83 10 l-77 0 -125 -125 c-69 -69 -128 -125 -132
-125 -5 0 -8 99 -8 219 0 190 -2 220 -16 225 -23 9 -107 7 -122 -2z"/>
<path d="M4750 3578 c-54 -15 -60 -25 -60 -89 l0 -59 -45 0 -45 0 0 -59 0 -60
43 -3 42 -3 5 -200 c4 -177 7 -204 25 -235 25 -43 112 -90 167 -90 42 0 52 18
46 81 -2 28 -8 34 -35 41 -18 5 -37 17 -43 28 -6 12 -9 87 -8 197 l3 178 53 3
53 3 -3 57 -3 57 -52 3 -53 3 0 80 0 79 -27 -1 c-16 0 -44 -5 -63 -11z"/>
<path d="M4013 3419 c-47 -15 -77 -33 -121 -74 -80 -74 -106 -133 -106 -240 0
-107 26 -166 105 -240 46 -42 74 -59 125 -75 111 -34 200 -25 284 28 l45 28
10 -30 c10 -30 11 -31 75 -31 l65 0 0 320 0 320 -60 0 -59 0 -9 -36 -8 -37
-50 34 c-88 59 -182 69 -296 33z m205 -125 c142 -59 175 -242 61 -338 -113
-96 -269 -63 -330 69 -46 100 3 226 106 271 41 18 118 17 163 -2z"/>
<path d="M5272 3420 c-94 -34 -153 -85 -203 -180 -20 -38 -24 -59 -24 -135 0
-94 13 -132 68 -207 31 -41 114 -94 176 -112 103 -30 195 -18 272 34 l44 29 3
-24 c5 -37 25 -46 89 -43 l58 3 0 320 0 320 -60 0 -60 0 -9 -36 -9 -36 -49 33
c-27 18 -66 38 -86 44 -56 15 -151 11 -210 -10z m237 -143 c65 -43 96 -98 96
-172 0 -50 -5 -69 -28 -103 -38 -58 -93 -92 -161 -99 -47 -5 -64 -2 -109 21
-163 79 -154 304 15 376 13 5 51 9 84 7 47 -2 71 -9 103 -30z"/>
<path d="M1806 3397 c-38 -28 -13 -97 34 -97 27 0 60 30 60 54 0 46 -56 71
-94 43z"/>
<path d="M2244 3155 c-15 -23 -15 -27 0 -50 29 -43 106 -23 106 28 0 48 -78
64 -106 22z"/>
<path d="M2090 2810 c-11 -11 -20 -27 -20 -35 0 -22 37 -55 60 -55 25 0 60 34
60 58 0 25 -31 52 -58 52 -12 0 -31 -9 -42 -20z"/>
<path d="M2632 2718 c-32 -32 -2 -88 47 -88 34 0 51 17 51 50 0 34 -17 50 -55
50 -17 0 -36 -5 -43 -12z"/>
</g>
</svg>
