<?xml version="1.0" standalone="no"?>
<!DOCTYPE svg PUBLIC "-//W3C//DTD SVG 20010904//EN"
 "http://www.w3.org/TR/2001/REC-SVG-20010904/DTD/svg10.dtd">
<svg version="1.0" xmlns="http://www.w3.org/2000/svg"
 width="1200.000000pt" height="1200.000000pt" viewBox="0 0 1200.000000 1200.000000"
 preserveAspectRatio="xMidYMid meet">
<metadata>
Created by potrace 1.16, written by Peter Selinger 2001-2019
</metadata>
<g transform="translate(0.000000,1200.000000) scale(0.100000,-0.100000)"
fill="#1A67F1" stroke="none">
<path d="M2430 7716 c-141 -30 -260 -97 -380 -216 -231 -229 -398 -600 -475
-1055 -81 -476 -45 -995 100 -1431 167 -506 472 -836 801 -870 l64 -7 2 -341
3 -340 281 499 c155 275 319 574 364 665 75 150 170 368 170 391 0 5 -122 9
-284 9 l-284 0 -11 -32 c-17 -47 -57 -95 -86 -102 -41 -10 -88 25 -116 87 -34
74 -34 201 0 269 26 54 63 88 97 88 33 0 79 -44 101 -95 l18 -45 312 0 312 0
15 53 c19 66 46 178 46 195 0 9 -100 12 -469 12 -258 0 -477 -3 -485 -6 -9 -3
-41 -50 -71 -105 -67 -119 -90 -139 -157 -139 -48 0 -49 -1 -67 -42 -25 -58
-63 -91 -102 -90 -65 2 -110 78 -117 198 -12 228 142 335 218 151 l22 -53 46
6 46 5 53 95 c29 52 65 105 79 118 l25 22 503 0 504 0 6 23 c3 12 9 73 12 135
l7 112 -561 0 -561 0 -22 -50 c-38 -89 -103 -114 -157 -60 -86 85 -82 314 7
394 49 45 126 5 154 -78 l14 -41 563 -3 563 -2 -7 121 c-4 67 -9 126 -12 131
-3 4 -222 8 -487 8 -367 0 -488 3 -507 13 -14 7 -46 48 -72 92 -88 153 -75
140 -152 143 -42 2 -73 -2 -82 -9 -8 -6 -39 -56 -70 -110 -59 -107 -85 -129
-149 -129 -32 0 -37 -4 -51 -40 -20 -50 -66 -90 -104 -90 -38 0 -87 52 -105
114 -43 144 15 326 103 326 41 0 87 -40 108 -96 16 -43 19 -45 53 -42 39 3 50
18 131 159 19 34 47 67 62 75 36 18 160 18 196 0 18 -9 48 -50 86 -118 33 -56
64 -106 70 -110 6 -4 222 -8 479 -8 l468 0 -6 33 c-4 17 -16 75 -28 127 l-22
95 -317 3 -317 2 -19 -42 c-72 -160 -207 -94 -220 107 -9 136 48 245 127 245
31 0 78 -46 97 -95 l17 -45 287 0 288 0 -19 53 c-60 159 -177 363 -278 482
-185 217 -437 326 -651 281z"/>
<path d="M2646 6898 c-10 -14 -16 -44 -16 -78 0 -65 20 -100 55 -100 35 0 59
50 53 112 -8 78 -59 114 -92 66z"/>
<path d="M5922 6898 c-16 -16 -17 -1559 -2 -1589 9 -15 22 -19 63 -19 29 0 58
5 65 12 8 8 12 67 12 200 l0 188 32 65 c18 36 35 65 39 65 4 0 51 -102 104
-227 54 -126 106 -245 116 -265 l19 -38 74 0 c90 0 102 10 82 66 -8 21 -75
174 -150 338 -75 165 -136 307 -136 315 0 9 55 117 121 241 66 124 121 236
122 250 2 25 1 25 -82 25 l-85 0 -120 -232 c-67 -128 -124 -233 -128 -233 -5
0 -8 186 -8 413 0 308 -3 416 -12 425 -7 7 -35 12 -63 12 -28 0 -56 -5 -63
-12z"/>
<path d="M4748 6811 c-55 -35 -57 -42 -61 -176 l-2 -100 -40 -5 -40 -5 0 -110
0 -110 40 -5 40 -5 5 -390 c5 -343 8 -396 24 -440 36 -100 82 -149 152 -165
53 -12 64 5 64 106 0 87 -10 124 -34 124 -7 0 -21 9 -32 21 -18 20 -19 41 -19
383 l0 361 50 5 50 5 0 110 0 110 -50 5 -50 5 -5 150 c-6 174 -9 178 -92 126z"/>
<path d="M4095 6551 c-124 -31 -228 -165 -282 -369 -24 -87 -27 -115 -27 -267
0 -151 3 -181 26 -266 35 -129 88 -231 153 -295 53 -51 120 -84 172 -84 60 0
140 56 186 130 l22 35 7 -59 c10 -79 20 -89 81 -83 27 2 53 11 58 18 5 8 9
283 9 611 0 580 -1 598 -19 608 -28 15 -98 13 -104 -3 -3 -8 -8 -44 -12 -82
l-8 -68 -22 37 c-29 48 -82 104 -115 121 -35 17 -89 24 -125 16z m82 -252
c159 -60 227 -424 119 -637 -92 -181 -222 -187 -309 -13 -112 223 -48 593 113
654 24 9 47 8 77 -4z"/>
<path d="M5345 6549 c-118 -27 -229 -181 -280 -390 -25 -100 -30 -316 -11
-426 31 -177 101 -325 188 -396 47 -38 113 -67 155 -67 60 0 140 56 186 130
l22 35 6 -57 c9 -78 21 -91 82 -85 27 2 53 11 58 18 5 8 9 280 9 606 0 665 5
623 -76 623 -49 0 -49 1 -62 -105 l-8 -60 -18 35 c-22 43 -82 107 -116 124
-37 19 -90 25 -135 15z m125 -268 c70 -49 128 -188 137 -331 13 -215 -91 -425
-211 -425 -183 0 -275 422 -145 666 59 110 142 144 219 90z"/>
<path d="M1806 6468 c-25 -40 -24 -126 2 -158 14 -18 25 -21 44 -17 45 12 62
95 34 162 -18 42 -57 48 -80 13z"/>
<path d="M2266 6055 c-29 -30 -40 -88 -25 -136 25 -77 71 -79 98 -3 17 48 8
107 -20 135 -23 23 -33 24 -53 4z"/>
<path d="M2096 5368 c-35 -56 -27 -142 16 -172 29 -20 53 -6 68 40 31 94 -38
203 -84 132z"/>
<path d="M2645 5190 c-23 -26 -31 -116 -13 -149 7 -13 21 -29 31 -35 15 -9 23
-6 43 17 18 22 24 39 24 78 0 91 -43 135 -85 89z"/>
</g>
</svg>
