<?xml version="1.0" standalone="no"?>
<!DOCTYPE svg PUBLIC "-//W3C//DTD SVG 20010904//EN"
 "http://www.w3.org/TR/2001/REC-SVG-20010904/DTD/svg10.dtd">
<svg version="1.0" xmlns="http://www.w3.org/2000/svg"
 width="400.000000pt" height="400.000000pt" viewBox="0 0 400.000000 400.000000"
 preserveAspectRatio="xMidYMid meet">
<metadata>
Created by potrace 1.16, written by Peter Selinger 2001-2019
</metadata>
<g transform="translate(0.000000,400.000000) scale(0.100000,-0.100000)"
fill="#1A67F1" stroke="none">
<path d="M753 2549 c-191 -94 -292 -477 -212 -810 46 -195 153 -334 270 -354
l39 -7 0 -111 0 -112 100 179 c55 99 116 214 135 255 l34 76 -91 3 c-82 3 -92
1 -105 -18 -31 -44 -73 -14 -73 53 0 65 58 100 75 46 6 -17 17 -19 110 -19
l105 0 6 28 c3 15 7 33 10 40 2 9 -34 12 -159 12 l-162 0 -20 -38 c-12 -23
-29 -38 -43 -40 -12 -2 -27 -12 -32 -23 -14 -25 -46 -25 -60 0 -16 32 -12 87
10 112 l20 24 25 -28 c30 -34 37 -33 67 13 l24 35 172 3 c170 2 172 3 172 25
0 12 3 32 6 45 l6 22 -190 0 c-179 0 -191 -1 -197 -19 -9 -30 -37 -35 -57 -11
-22 27 -23 78 -2 108 20 29 40 28 60 -3 l17 -26 178 1 c98 1 180 5 183 8 2 4
1 24 -1 44 l-5 38 -166 2 -167 3 -24 38 c-33 51 -68 51 -96 0 -11 -21 -29 -39
-40 -42 -11 -2 -26 -12 -33 -22 -40 -57 -92 25 -61 95 7 14 18 27 25 30 14 5
44 -18 44 -35 0 -23 30 -5 54 32 25 36 30 40 64 37 31 -3 40 -9 57 -40 l20
-38 158 0 159 0 -7 33 c-4 17 -9 35 -12 40 -2 4 -50 7 -106 7 -91 0 -104 -2
-115 -20 -17 -27 -38 -25 -58 5 -30 46 1 137 41 121 9 -3 19 -15 22 -26 5 -18
14 -20 100 -20 108 0 106 -3 55 94 -82 152 -212 213 -329 155z"/>
<path d="M887 2304 c-4 -4 -7 -20 -7 -36 0 -35 23 -34 28 1 4 25 -10 46 -21
35z"/>
<path d="M1970 2035 l0 -265 25 0 c24 0 25 2 25 68 0 41 5 75 13 86 12 17 17
10 49 -65 34 -77 39 -84 68 -87 l31 -3 -14 33 c-8 18 -31 71 -53 117 l-38 84
42 79 c23 43 42 83 42 88 0 6 -11 10 -24 10 -20 0 -32 -15 -70 -82 l-45 -83
-1 143 0 142 -25 0 -25 0 0 -265z"/>
<path d="M1582 2268 c-7 -7 -12 -29 -12 -49 0 -28 -5 -38 -20 -42 -15 -4 -20
-14 -20 -36 0 -20 7 -34 20 -41 18 -10 20 -21 20 -143 0 -143 10 -180 48 -185
19 -3 22 1 22 31 0 19 -7 40 -15 47 -12 10 -15 38 -15 131 0 112 1 119 20 119
16 0 20 7 20 36 0 27 -5 37 -20 41 -17 4 -20 14 -20 54 0 50 -7 58 -28 37z"/>
<path d="M1317 2150 c-37 -43 -52 -95 -52 -180 0 -88 15 -138 55 -180 35 -37
72 -39 105 -5 23 22 25 23 25 5 0 -15 7 -20 25 -20 l25 0 -2 202 c-3 184 -5
203 -20 206 -14 3 -18 -3 -18 -24 l0 -28 -28 27 c-39 37 -82 36 -115 -3z m111
-90 c20 -30 23 -44 20 -97 -7 -112 -67 -155 -116 -83 -20 30 -23 44 -20 100 7
118 64 157 116 80z"/>
<path d="M1736 2149 c-38 -45 -60 -130 -53 -204 14 -148 87 -222 161 -164 21
17 26 18 26 5 0 -10 9 -16 25 -16 l25 0 -2 202 c-3 184 -5 203 -20 206 -14 3
-18 -3 -18 -22 0 -32 -7 -33 -32 -1 -29 37 -78 34 -112 -6z m108 -82 c30 -41
30 -153 0 -194 -30 -39 -62 -37 -92 7 -20 30 -23 44 -20 100 6 113 61 155 112
87z"/>
<path d="M600 2130 c0 -20 5 -30 15 -30 10 0 15 10 15 30 0 20 -5 30 -15 30
-10 0 -15 -10 -15 -30z"/>
<path d="M752 1989 c2 -19 8 -33 13 -31 15 3 12 55 -3 60 -10 3 -13 -5 -10
-29z"/>
<path d="M695 1780 c-9 -15 5 -52 18 -47 15 5 16 49 0 54 -6 2 -14 -1 -18 -7z"/>
<path d="M882 1723 c-12 -22 -7 -53 9 -53 16 0 22 30 12 53 l-10 22 -11 -22z"/>
</g>
</svg>
